<svg width="25" height="25" viewBox="0 0 25 25" fill="none" xmlns="http://www.w3.org/2000/svg">
<rect x="3.33337" y="3.33325" width="17.5" height="18.3333" rx="6" fill="white"/>
<circle cx="12.5" cy="12.5" r="12.5" fill="#F0DB4F"/>
<path d="M19.9383 14.2429C19.7713 13.1696 19.0932 12.268 17.0845 11.4273C16.3868 11.0964 15.6089 10.8594 15.3771 10.3136C15.2948 9.99594 15.2838 9.81702 15.3359 9.62476C15.4854 9.00078 16.207 8.80626 16.779 8.98518C17.1474 9.11261 17.4961 9.40561 17.7064 9.87303C18.69 9.2156 18.688 9.21992 19.3749 8.76811C19.1234 8.36572 18.9892 8.18003 18.8246 8.00787C18.233 7.32583 17.4269 6.97456 16.1377 7.00143L15.4661 7.09108C14.8226 7.25892 14.2093 7.60755 13.8497 8.07497C12.7706 9.3387 13.0783 11.5504 14.3914 12.4606C15.685 13.4628 17.5853 13.6907 17.828 14.6278C18.0642 15.775 17.0112 16.1464 15.9645 16.0145C15.1932 15.8489 14.7641 15.4442 14.3004 14.7084C13.4467 15.2183 13.4467 15.2183 12.569 15.7393C12.7772 16.209 12.9958 16.4216 13.3447 16.8285C14.9959 18.5572 19.128 18.4722 19.8691 15.8557C19.8991 15.7658 20.0987 15.1667 19.9383 14.2429ZM11.4009 7.13995H9.26878L9.26005 12.8294C9.26005 14.0394 9.32068 15.1486 9.13003 15.4886C8.81811 16.1573 8.0098 16.0744 7.64143 15.9447C7.2665 15.7545 7.07585 15.4841 6.85497 15.1018C6.79434 14.9921 6.74881 14.9071 6.73352 14.9005L5 15.9962C5.28825 16.6069 5.71289 17.1369 6.2568 17.4812C7.06929 17.9845 8.1613 18.1388 9.30338 17.8682C10.0467 17.6447 10.688 17.1818 11.0238 16.4772C11.5092 15.5534 11.4051 14.4354 11.4007 13.1987C11.4116 11.1811 11.4009 9.16392 11.4009 7.13995Z" fill="#323330"/>
</svg>
