<svg width="11" height="24" viewBox="0 0 11 24" fill="none" xmlns="http://www.w3.org/2000/svg">
<path fill-rule="evenodd" clip-rule="evenodd" d="M10.0481 7.77344C10.3616 8.68027 10.5873 9.60605 10.6616 10.5656C10.7537 11.7561 10.7116 12.9381 10.4606 14.109C10.4537 14.1412 10.4393 14.1715 10.4286 14.2027C10.3498 14.2029 10.2696 14.1932 10.1926 14.2051C9.54242 14.3072 8.89281 14.4131 8.2432 14.5184C7.57172 14.6271 6.89926 14.7316 6.22894 14.8479C5.99144 14.8889 5.6975 14.8398 5.6016 15.1684C5.59887 15.1773 5.57152 15.1789 5.5557 15.184L5.58812 13.2209L5.55511 8.48418L5.86801 8.43047C6.37973 8.34668 6.89144 8.26172 7.40355 8.18027C8.01469 8.0832 8.6264 7.98887 9.23793 7.89414C9.50765 7.85215 9.77777 7.81367 10.0481 7.77344V7.77344Z" fill="#439934"/>
<path fill-rule="evenodd" clip-rule="evenodd" d="M4.90957 20.9066C4.57949 20.6228 4.23789 20.3515 3.92148 20.0531C2.21894 18.4472 0.973628 16.5572 0.360347 14.2785C0.191401 13.6513 0.0787061 13.014 0.0425733 12.366C0.0171827 11.9125 -0.0195367 11.4548 0.0124946 11.0037C0.0978462 9.80366 0.271284 8.61518 0.623237 7.45933L0.642573 7.43237C0.676753 7.47788 0.725971 7.51812 0.743354 7.56948C1.08691 8.5812 1.42792 9.5937 1.76718 10.6068C2.8332 13.7904 3.89785 16.9748 4.96562 20.1576C4.98652 20.2197 5.04062 20.2707 5.07949 20.3267L4.90957 20.9066V20.9066Z" fill="#45A538"/>
<path fill-rule="evenodd" clip-rule="evenodd" d="M10.0481 7.77329C9.77775 7.81353 9.50744 7.852 9.23771 7.8936C8.62619 7.98833 8.01447 8.08267 7.40334 8.17974C6.89123 8.26118 6.37951 8.34614 5.86779 8.42993L5.5549 8.48364L5.55256 8.27954C5.54221 8.11177 5.52443 7.94419 5.52248 7.77642C5.509 6.70649 5.5006 5.63657 5.48732 4.56665C5.47912 3.89692 5.46682 3.22739 5.45314 2.55786C5.44474 2.14185 5.43576 1.72563 5.41701 1.31021C5.40685 1.08696 5.37092 0.864893 5.35627 0.64165C5.34806 0.51333 5.35939 0.384033 5.36193 0.255127C5.5215 0.564307 5.67756 0.87583 5.84162 1.18267C6.1008 1.66782 6.51369 2.02524 6.88537 2.41528C8.35471 3.95669 9.39787 5.74888 10.0481 7.77329V7.77329Z" fill="#46A037"/>
<path fill-rule="evenodd" clip-rule="evenodd" d="M5.55549 15.1836C5.57131 15.1786 5.59885 15.177 5.60139 15.168C5.69729 14.8395 5.99124 14.8885 6.22874 14.8475C6.89905 14.7315 7.57151 14.6268 8.24299 14.518C8.8926 14.4128 9.54221 14.3069 10.1924 14.2047C10.2694 14.1926 10.3496 14.2026 10.4283 14.2024C10.3069 14.636 10.2112 15.079 10.0571 15.5006C9.88206 15.979 9.67034 16.4458 9.44553 16.9034C9.10898 17.5859 8.69245 18.226 8.20471 18.8102C7.82991 19.261 7.41213 19.6776 6.99338 20.0891C6.76194 20.3167 6.48909 20.502 6.23518 20.7065L6.16936 20.6616L5.93225 20.4588L5.68694 19.9212C5.51938 19.2939 5.42796 18.6488 5.41467 17.9997L5.41916 17.8901L5.45256 17.4163C5.4637 17.2545 5.47854 17.093 5.48538 16.9309C5.51057 16.3485 5.53245 15.7661 5.55549 15.1836V15.1836Z" fill="#409433"/>
<path fill-rule="evenodd" clip-rule="evenodd" d="M5.55551 15.1836C5.53246 15.7661 5.51058 16.3485 5.48578 16.9311C5.47894 17.0932 5.4641 17.2547 5.45297 17.4165L5.30355 17.4729C4.97172 16.4959 4.63968 15.5293 4.31488 14.5602C3.77777 12.9569 3.24711 11.351 2.71078 9.74731C2.2776 8.45287 1.8414 7.15945 1.40219 5.86704C1.38168 5.80649 1.32269 5.75923 1.28168 5.70571L2.23793 3.94751C2.27074 4.00454 2.3141 4.05786 2.3348 4.11919C2.77768 5.4282 3.21831 6.73796 3.65668 8.04849C4.22621 9.75356 4.79222 11.46 5.36136 13.1653C5.38402 13.2334 5.42152 13.2963 5.45726 13.3727L5.58812 13.2204L5.55551 15.1836V15.1836Z" fill="#4FAA41"/>
<path fill-rule="evenodd" clip-rule="evenodd" d="M1.28188 5.70605C1.3229 5.75957 1.38169 5.80684 1.40239 5.86738C1.8416 7.15979 2.2778 8.45322 2.71099 9.74766C3.24731 11.3514 3.77798 12.9572 4.31509 14.5605C4.6397 15.5295 4.97173 16.4963 5.30376 17.4732L5.45317 17.4168L5.41978 17.8906L5.3895 17.9998C5.33755 18.5186 5.2938 19.0385 5.23052 19.5561C5.19868 19.8154 5.1311 20.0701 5.07974 20.327C5.04106 20.2709 4.98677 20.2199 4.96587 20.1578C3.8981 16.9748 2.83345 13.7906 1.76743 10.607C1.42829 9.59388 1.08702 8.58144 0.743603 7.56973C0.72622 7.51836 0.677197 7.47813 0.642822 7.43262L1.28188 5.70605V5.70605Z" fill="#4AA73C"/>
<path fill-rule="evenodd" clip-rule="evenodd" d="M5.58793 13.2206L5.45707 13.3729C5.42133 13.2966 5.38383 13.2335 5.36117 13.1655C4.79222 11.4603 4.22601 9.75381 3.65648 8.04873C3.21811 6.73821 2.77749 5.42844 2.33461 4.11943C2.3141 4.05811 2.27074 4.00459 2.23773 3.94775L3.42035 2.39209C3.45765 2.44189 3.51078 2.48623 3.53011 2.54228C3.85844 3.50342 4.18383 4.46572 4.50726 5.42861C4.80941 6.32783 5.10707 7.22842 5.41273 8.12646C5.43324 8.18662 5.50453 8.2292 5.55218 8.27998L5.55453 8.48408C5.56586 10.0626 5.57699 11.6417 5.58793 13.2206V13.2206Z" fill="#57AE47"/>
<path fill-rule="evenodd" clip-rule="evenodd" d="M5.55255 8.27969C5.5049 8.22891 5.43361 8.18633 5.4131 8.12617C5.10743 7.22812 4.80978 6.32754 4.50763 5.42832C4.18419 4.46543 3.8588 3.50332 3.53048 2.54199C3.51115 2.48594 3.45802 2.4416 3.42072 2.3918C3.80529 2.01523 4.17794 1.6252 4.57794 1.26602C4.93361 0.946875 5.21954 0.604687 5.23263 0.100391C5.23322 0.0794922 5.24415 0.0585938 5.26095 0L5.36232 0.255078C5.35978 0.38418 5.34825 0.513281 5.35665 0.641602C5.3713 0.864844 5.40724 1.08691 5.4174 1.31016C5.43615 1.72559 5.44513 2.1418 5.45353 2.55781C5.467 3.22734 5.47931 3.89688 5.48771 4.5666C5.50079 5.63652 5.50939 6.70645 5.52286 7.77637C5.52443 7.94453 5.54201 8.11191 5.55255 8.27969V8.27969Z" fill="#60B24F"/>
<path fill-rule="evenodd" clip-rule="evenodd" d="M5.07935 20.3267C5.13071 20.0698 5.19829 19.8149 5.23013 19.5558C5.2936 19.0384 5.33716 18.5183 5.38911 17.9995L5.402 17.9976L5.41489 17.9997C5.42818 18.6488 5.5196 19.2939 5.68716 19.9212C5.65278 19.9665 5.60415 20.0069 5.58599 20.0581C5.44399 20.4585 5.3102 20.862 5.16743 21.2624C5.1479 21.3171 5.0936 21.3597 5.05532 21.4077L4.90942 20.9065L5.07935 20.3267V20.3267Z" fill="#A9AA88"/>
<path fill-rule="evenodd" clip-rule="evenodd" d="M5.05548 21.4079C5.09376 21.3599 5.14825 21.3173 5.16759 21.2626C5.31036 20.8622 5.44435 20.4589 5.58614 20.0583C5.60431 20.0071 5.65275 19.9667 5.68732 19.9214L5.93243 20.4593C5.884 20.528 5.8172 20.5899 5.79025 20.6665L5.32071 22.0452C5.30138 22.1005 5.23536 22.1396 5.19122 22.1862L5.05548 21.4079V21.4079Z" fill="#B6B598"/>
<path fill-rule="evenodd" clip-rule="evenodd" d="M5.19122 22.1859C5.23556 22.1395 5.30138 22.1002 5.32071 22.0449L5.79025 20.6662C5.817 20.5898 5.884 20.5277 5.93243 20.459L6.16974 20.6615C6.05509 20.7748 5.99142 20.9057 6.0297 21.0711L5.95763 21.307C5.92482 21.3475 5.87736 21.3826 5.86114 21.4289C5.69728 21.8982 5.54083 22.3701 5.37579 22.8395C5.35489 22.899 5.29689 22.9457 5.25587 22.998C5.23458 22.7271 5.2129 22.4568 5.19122 22.1859V22.1859Z" fill="#C2C1A7"/>
<path fill-rule="evenodd" clip-rule="evenodd" d="M5.25607 22.9981C5.29689 22.9456 5.35489 22.8989 5.37599 22.8395C5.54103 22.3704 5.69747 21.8985 5.86134 21.429C5.87755 21.3829 5.92482 21.3476 5.95782 21.3071L5.85841 22.3901C5.83185 22.4208 5.79337 22.4476 5.78068 22.4833C5.66837 22.7985 5.56251 23.1161 5.44982 23.4313C5.42657 23.4964 5.38204 23.5538 5.34728 23.6145C5.31642 23.5741 5.26114 23.5351 5.2586 23.4929C5.24864 23.3286 5.25548 23.1632 5.25607 22.9981V22.9981Z" fill="#CECDB7"/>
<path fill-rule="evenodd" clip-rule="evenodd" d="M5.34711 23.6146C5.38187 23.5536 5.4264 23.4962 5.44965 23.4313C5.56254 23.1163 5.6682 22.7987 5.78051 22.4833C5.7932 22.4476 5.83187 22.421 5.85824 22.3901L5.86058 23.1011L5.62269 23.7112L5.34711 23.6146V23.6146Z" fill="#DBDAC7"/>
<path fill-rule="evenodd" clip-rule="evenodd" d="M5.62268 23.7115L5.86057 23.1013L5.9096 23.8232L5.62268 23.7115V23.7115Z" fill="#EBE9DC"/>
<path fill-rule="evenodd" clip-rule="evenodd" d="M6.02972 21.0714C5.99144 20.906 6.05491 20.775 6.16976 20.6619L6.23558 20.7068L6.02972 21.0714V21.0714Z" fill="#CECDB7"/>
<path fill-rule="evenodd" clip-rule="evenodd" d="M5.41488 18L5.40199 17.9979L5.3891 17.9998L5.41937 17.8906L5.41488 18V18Z" fill="#4FAA41"/>
</svg>
