<svg width="25" height="25" viewBox="0 0 25 25" fill="none" xmlns="http://www.w3.org/2000/svg">
<path d="M12.5 0C5.60547 0 0 5.60547 0 12.5C0 19.3945 5.60547 25 12.5 25C19.3945 25 25 19.3945 25 12.5C25 5.60547 19.3945 0 12.5 0ZM18.8867 22.3438L9.45312 8.16406H8.125V17.9492H9.45312V10.8008L18.0859 22.8125C16.4258 23.7109 14.5312 24.2188 12.5 24.2188C6.01562 24.2383 0.761719 18.9844 0.761719 12.5C0.761719 6.01562 6.01562 0.761719 12.5 0.761719C18.9844 0.761719 24.2383 6.01562 24.2383 12.5C24.2383 16.6211 22.1094 20.2539 18.8867 22.3438Z" fill="white"/>
<path d="M16.3793 14.7377L17.2414 17.2413V7.75854H16.3793V14.7377Z" fill="white"/>
</svg>
