<svg width="25" height="25" viewBox="0 0 25 25" fill="none" xmlns="http://www.w3.org/2000/svg">
<path d="M12.9363 0.208227C12.568 -7.30455e-05 12.1308 -7.30455e-05 11.7627 0.208227L2.07525 5.83463C1.7071 6.04303 1.5 6.43658 1.5 6.85343V18.1291C1.5 18.546 1.7301 18.9395 2.07525 19.1479L11.7627 24.7743C12.1308 24.9826 12.568 24.9826 12.9363 24.7743L22.6236 19.1479C22.9918 18.9395 23.1988 18.546 23.1988 18.1291V6.85343C23.1988 6.43658 22.9688 6.04303 22.6236 5.83463L12.9363 0.208227Z" fill="url(#paint0_linear_506_529)"/>
<mask id="mask0_506_529" style="mask-type:luminance" maskUnits="userSpaceOnUse" x="1" y="0" width="23" height="25">
<path d="M12.9363 0.208227C12.568 -7.30455e-05 12.1308 -7.30455e-05 11.7627 0.208227L2.07525 5.83463C1.7071 6.04303 1.5 6.43658 1.5 6.85343V18.1291C1.5 18.546 1.7301 18.9395 2.07525 19.1479L11.7627 24.7743C12.1308 24.9826 12.568 24.9826 12.9363 24.7743L22.6236 19.1479C22.9918 18.9395 23.1988 18.546 23.1988 18.1291V6.85343C23.1988 6.43658 22.9688 6.04303 22.6236 5.83463L12.9363 0.208227Z" fill="white"/>
</mask>
<g mask="url(#mask0_506_529)">
<path d="M12.3495 -0.523438L23.1027 5.974L12.3495 25.5362L1.57642 19.0274L12.3495 -0.523438Z" fill="url(#paint1_linear_506_529)"/>
</g>
<mask id="mask1_506_529" style="mask-type:luminance" maskUnits="userSpaceOnUse" x="1" y="0" width="23" height="25">
<path d="M12.9363 0.208227C12.568 -7.30455e-05 12.1308 -7.30455e-05 11.7627 0.208227L2.07525 5.83463C1.7071 6.04303 1.5 6.43658 1.5 6.85343V18.1291C1.5 18.546 1.7301 18.9395 2.07525 19.1479L11.7627 24.7743C12.1308 24.9826 12.568 24.9826 12.9363 24.7743L22.6236 19.1479C22.9918 18.9395 23.1988 18.546 23.1988 18.1291V6.85343C23.1988 6.43658 22.9688 6.04303 22.6236 5.83463L12.9363 0.208227Z" fill="white"/>
</mask>
<g mask="url(#mask1_506_529)">
<path d="M12.3495 -0.523438L1.57642 5.974L12.3495 25.5362L23.1027 19.0274L12.3495 -0.523438Z" fill="url(#paint2_linear_506_529)"/>
</g>
<defs>
<linearGradient id="paint0_linear_506_529" x1="16.665" y1="4.27993" x2="8.95" y2="22.3499" gradientUnits="userSpaceOnUse">
<stop stop-color="#3F8B3D"/>
<stop offset="0.64" stop-color="#3F873F"/>
<stop offset="0.93" stop-color="#3DA92E"/>
<stop offset="1" stop-color="#3DAE2B"/>
</linearGradient>
<linearGradient id="paint1_linear_506_529" x1="10.9" y1="13.3999" x2="35.5" y2="0.199873" gradientUnits="userSpaceOnUse">
<stop offset="0.14" stop-color="#3F873F"/>
<stop offset="0.4" stop-color="#52A044"/>
<stop offset="0.71" stop-color="#64B749"/>
<stop offset="0.91" stop-color="#6ABF4B"/>
</linearGradient>
<linearGradient id="paint2_linear_506_529" x1="1.62503" y1="12.2499" x2="23.5" y2="12.2499" gradientUnits="userSpaceOnUse">
<stop offset="0.09" stop-color="#6ABF4B"/>
<stop offset="0.29" stop-color="#64B749"/>
<stop offset="0.6" stop-color="#52A044"/>
<stop offset="0.86" stop-color="#3F873F"/>
</linearGradient>
</defs>
</svg>
