<svg width="25" height="25" viewBox="0 0 25 25" fill="none" xmlns="http://www.w3.org/2000/svg">
<path fill-rule="evenodd" clip-rule="evenodd" d="M24.0738 14.9969C23.9859 14.427 23.5072 14.0537 22.9504 14.0285C22.7488 14.0193 22.5441 14.0404 22.3432 14.066C22.1004 14.0969 21.8605 14.1516 21.6184 14.1877C21.451 14.2127 21.2812 14.2242 21.1141 14.2414L21.11 14.2197C21.4221 13.6303 21.7473 13.0473 22.0426 12.4494C22.2689 11.9908 22.4627 11.5156 22.6629 11.0443C22.9941 10.2635 23.2588 9.4584 23.4779 8.64023C23.6879 7.85684 23.8676 7.06484 23.924 6.25215C23.9467 5.92754 23.9623 5.60156 23.9605 5.27656C23.959 5.01738 23.9311 4.75781 23.9051 4.49941C23.8758 4.20332 23.7863 3.92266 23.6625 3.65254C23.4992 3.29668 23.2461 3.00469 22.9797 2.72734C22.7664 2.50527 22.5318 2.30293 22.2992 2.10078C21.9676 1.8123 21.5947 1.58203 21.2074 1.37754C20.7687 1.1444 20.3039 0.964105 19.8227 0.84043C19.5311 0.766016 19.2328 0.710742 18.9375 0.651758C18.8312 0.630273 18.7248 0.585938 18.6186 0.585938H16.6184C16.5461 0.585938 16.4744 0.623242 16.4016 0.631445C15.9227 0.684766 15.4494 0.775 14.9898 0.917383C14.818 0.970703 14.6609 0.937109 14.4977 0.92207C14.3725 0.910547 14.2494 0.876953 14.1242 0.870703C13.6473 0.846875 13.1697 0.811914 12.693 0.816992C12.2361 0.82168 11.784 0.896875 11.3418 1.02246C10.9717 1.12754 10.6096 1.25586 10.2779 1.45039C10.1359 1.53359 10.0234 1.51797 9.87656 1.47559C9.38301 1.3332 8.88594 1.19941 8.38457 1.08711C8.07207 1.01719 7.75078 0.982422 7.43164 0.949023C7.1254 0.917196 6.81798 0.898039 6.51016 0.891602C6.20977 0.885156 5.90723 0.885352 5.6082 0.911914C5.13192 0.95332 4.66245 1.05255 4.21016 1.20742C3.70923 1.37846 3.24118 1.63376 2.82617 1.9623C2.40293 2.29727 2.06348 2.70625 1.79043 3.17324C1.50273 3.66602 1.30547 4.19355 1.18281 4.74766C1.11641 5.04785 1.07441 5.35645 1.02891 5.66133C1.01465 5.75625 1.17188 5.85117 0.976562 5.9457V7.27266C1.17188 7.36094 1.01719 7.44902 1.02852 7.5375C1.05566 7.7502 1.07969 7.96465 1.11562 8.17578C1.17246 8.50996 1.23984 8.84316 1.30859 9.1752C1.40406 9.63926 1.50471 10.1022 1.61055 10.5641C1.68789 10.9 1.77598 11.234 1.86816 11.5662C2.00898 12.0736 2.14766 12.582 2.30684 13.0838C2.45469 13.55 2.62402 14.0096 2.79199 14.4691C3.02461 15.1049 3.30312 15.7201 3.63711 16.3098C3.92598 16.8203 4.25605 17.2984 4.69883 17.6918C4.99062 17.951 5.31543 18.1502 5.69355 18.2498C5.99062 18.3279 6.29258 18.3373 6.59668 18.275C6.94315 18.2045 7.26682 18.0495 7.53887 17.8236C7.5707 17.7975 7.60566 17.7775 7.64336 17.8256C7.78691 18.0074 7.9791 18.1287 8.18008 18.2336C8.72246 18.5164 9.31348 18.6012 9.91387 18.6357C10.0592 18.6441 10.2061 18.6232 10.3525 18.6191C10.6379 18.6113 10.9152 18.5557 11.1881 18.4768C11.3311 18.4354 11.4707 18.3828 11.6162 18.3338C11.6238 18.4887 11.6336 18.6379 11.6381 18.7871L11.6584 19.6008C11.6621 19.7246 11.667 19.8488 11.6785 19.9721C11.708 20.2898 11.7369 20.6078 11.7748 20.9246C11.8012 21.143 11.8285 21.3631 11.8799 21.5762C11.9829 22.0063 12.1239 22.4265 12.3014 22.8316C12.4713 23.2249 12.7324 23.5721 13.0631 23.8443C13.4967 24.2029 14.0049 24.3559 14.5537 24.3842C14.7807 24.3961 15.0141 24.385 15.2375 24.3443C15.5926 24.2812 15.9439 24.1981 16.2896 24.0953C16.991 23.8836 17.5973 23.518 18.0502 22.9271C18.308 22.5904 18.5197 22.2262 18.6557 21.824C18.7678 21.4918 18.8734 21.1562 18.9574 20.8162C19.0238 20.5482 19.0566 20.2719 19.0971 19.9982C19.1238 19.8172 19.1398 19.6344 19.1566 19.452C19.184 19.1557 19.2119 18.8596 19.2316 18.5627C19.2453 18.3561 19.2447 18.1484 19.2529 17.9414C19.2555 17.8783 19.2656 17.8156 19.2715 17.7527C19.277 17.6945 19.3062 17.6744 19.3656 17.6754C19.5748 17.6785 19.7844 17.684 19.993 17.6746C20.2268 17.6641 20.4627 17.6541 20.6928 17.6154C21.0206 17.5607 21.3458 17.4911 21.6674 17.407C22.0469 17.3078 22.3949 17.1301 22.7299 16.9275C23.1201 16.6918 23.4758 16.4152 23.7645 16.059C24.0154 15.7482 24.1344 15.3891 24.0738 14.9969ZM23.4074 15.1887C23.3945 15.3674 23.3127 15.5205 23.1939 15.6514C22.6336 16.2691 21.9307 16.6439 21.1266 16.8285C20.8211 16.8984 20.5059 16.9348 20.1932 16.9637C19.926 16.9872 19.6576 16.9935 19.3896 16.9826C19.1932 16.9752 18.9982 16.9303 18.7975 16.9014C18.7773 17.085 18.7582 17.2762 18.735 17.467L18.6414 18.1984C18.6131 18.4303 18.591 18.6629 18.5619 18.8945C18.5334 19.1193 18.4979 19.3434 18.468 19.5682C18.44 19.7775 18.4195 19.9879 18.3885 20.1969C18.3406 20.5172 18.2949 20.8383 18.2324 21.1561C18.1574 21.5359 18.0424 21.9039 17.8547 22.2465C17.6258 22.6646 17.3012 22.9832 16.8881 23.2191C16.4623 23.4625 15.9969 23.5891 15.525 23.6949C15.191 23.7699 14.8469 23.7822 14.5086 23.7518C13.9219 23.6986 13.4211 23.4477 13.0426 22.9928C12.6812 22.5586 12.4367 22.0609 12.3492 21.4977C12.3084 21.2295 12.2764 20.9601 12.2533 20.6898C12.2274 20.3895 12.2079 20.0887 12.1949 19.7875C12.1776 19.4054 12.1648 19.0232 12.1564 18.6408C12.1461 18.1709 12.1428 17.701 12.1361 17.2311L12.135 17.2131C11.8959 17.3564 11.6609 17.5135 11.4117 17.6428C11.1205 17.7934 10.8017 17.8833 10.4746 17.907C10.2172 17.9266 9.95645 17.9443 9.7002 17.9238C9.28008 17.89 8.86035 17.8242 8.48418 17.6174C8.33164 17.5334 8.17246 17.4312 8.06738 17.2971C7.81543 16.9756 7.93613 16.5693 8.31602 16.3738C8.57852 16.2385 8.86504 16.182 9.14961 16.1162C9.39729 16.06 9.64239 15.993 9.88418 15.9152C10.1229 15.8371 10.2734 15.6436 10.4221 15.4537L10.6576 15.1508C10.5594 15.1404 10.4668 15.1299 10.3742 15.1213C10.0932 15.0947 9.825 15.0174 9.56855 14.9037C9.34902 14.8066 9.3457 14.7961 9.18477 14.9707C8.91602 15.2625 8.65469 15.5611 8.39141 15.8578C8.19766 16.076 8.00508 16.2955 7.8123 16.5143C7.62129 16.7307 7.44238 16.9594 7.23672 17.1607C6.93125 17.4598 6.56309 17.6396 6.12383 17.6193C5.84199 17.6064 5.58398 17.5076 5.35195 17.3461C4.87305 17.0125 4.55039 16.5459 4.25664 16.0559C3.88027 15.4279 3.59141 14.759 3.34414 14.0717C3.17305 13.5967 3.00117 13.1213 2.85176 12.6395C2.68945 12.1158 2.54707 11.5855 2.40703 11.0555C2.30243 10.655 2.20592 10.2524 2.11758 9.84805C2.01456 9.3888 1.91924 8.92786 1.83164 8.46543C1.77344 8.15312 1.73965 7.83633 1.69258 7.52188C1.6291 7.09805 1.61738 6.67031 1.64043 6.24473C1.66094 5.86133 1.71602 5.47891 1.7707 5.09805C1.84648 4.57109 2.02012 4.07383 2.26992 3.6043C2.42285 3.3166 2.6127 3.05508 2.83223 2.81211C3.19258 2.41328 3.62871 2.125 4.11387 1.90859C4.45293 1.75742 4.81113 1.66641 5.17617 1.59531C5.71797 1.48984 6.26465 1.49395 6.81152 1.50527C7.05059 1.51016 7.28867 1.55371 7.52754 1.57734C8.0418 1.62852 8.5459 1.73672 9.04356 1.87031C9.40625 1.96758 9.76152 2.09355 10.1213 2.20293C10.1574 2.21387 10.2104 2.21289 10.2398 2.19355C10.7273 1.87539 11.2602 1.66543 11.8268 1.54531C12.0418 1.4998 12.2637 1.47988 12.4836 1.46582C12.751 1.44883 13.0205 1.4332 13.2873 1.44863C13.608 1.46699 13.9271 1.51426 14.2459 1.55801C14.4006 1.5791 14.5516 1.63281 14.7066 1.64746C14.7809 1.65449 14.8596 1.6002 14.9381 1.58203C15.3383 1.48965 15.7367 1.38672 16.1404 1.31367C16.441 1.25937 16.748 1.23379 17.0537 1.21621C17.3945 1.19668 17.7379 1.18242 18.0785 1.19883C18.5098 1.22019 18.9383 1.28052 19.3588 1.3791C19.8816 1.50078 20.3832 1.67754 20.86 1.92285C21.2162 2.10605 21.5549 2.31855 21.8598 2.57988C22.0596 2.75137 22.2641 2.9207 22.4445 3.11172C22.6672 3.34727 22.8943 3.58301 23.034 3.88477C23.1391 4.1123 23.2141 4.34785 23.2348 4.59707C23.2605 4.90684 23.2918 5.21777 23.2889 5.52793C23.2861 5.82461 23.2457 6.12109 23.217 6.41699C23.1518 7.0916 23.0051 7.75156 22.827 8.40273C22.6779 8.94063 22.5093 9.47289 22.3213 9.99844C22.1496 10.483 21.9516 10.9588 21.7514 11.4326C21.604 11.7836 21.4439 12.1291 21.2713 12.4684C20.9437 13.1102 20.6031 13.7453 20.2092 14.3498C20.1412 14.4543 20.0768 14.5613 20.0104 14.668C20.1822 14.784 20.377 14.8248 20.573 14.8459C20.7596 14.8662 20.9498 14.8783 21.1361 14.8645C21.4344 14.8424 21.7316 14.7998 22.0281 14.7582C22.3219 14.7172 22.6098 14.6336 22.9113 14.6557C23.2125 14.6775 23.4279 14.9064 23.4074 15.1887ZM19.108 14.5338C18.9801 14.3686 18.8496 14.2053 18.7244 14.0381C18.5279 13.7756 18.3867 13.4824 18.2449 13.1879C18.1105 12.9088 17.9457 12.6445 17.8041 12.3686C17.557 11.8871 17.3055 11.4072 17.0779 10.9164C16.7918 10.2998 16.5662 9.66133 16.4951 8.97832C16.465 8.68926 16.4574 8.40059 16.5158 8.11426C16.6094 7.65703 16.8482 7.29941 17.2498 7.0541C17.6223 6.82656 18.0373 6.75313 18.4625 6.73008C18.7264 6.71582 18.9914 6.72754 19.2652 6.72754L19.2561 6.68125C19.0857 6.3252 18.9266 5.96309 18.7402 5.61543C18.4773 5.1248 18.141 4.68242 17.7664 4.27227C17.4889 3.96855 17.1883 3.68672 16.859 3.4377C16.5352 3.19258 16.1939 2.97363 15.8299 2.79453C15.3957 2.58105 14.9436 2.41602 14.4691 2.31074C14.0133 2.20957 13.5545 2.14766 13.0869 2.14258C12.6881 2.13828 12.2918 2.15625 11.9033 2.24629C11.317 2.38203 10.7807 2.62344 10.3141 3.01445C10.0559 3.23095 9.82522 3.47824 9.62715 3.75078C9.39355 4.07168 9.20508 4.41816 9.04395 4.78145C8.82285 5.27988 8.67109 5.79863 8.56738 6.33184C8.51543 6.59766 8.4748 6.86582 8.4334 7.13379C8.41895 7.22754 8.41777 7.32344 8.40938 7.43086C8.48145 7.39336 8.5334 7.36445 8.58652 7.33867L8.75938 7.26113C9.34395 6.99375 9.94961 6.82168 10.6006 6.84141C10.8771 6.8498 11.1418 6.90449 11.3877 7.02559C11.8594 7.2582 12.1354 7.65371 12.2553 8.1543C12.3381 8.4998 12.3947 8.85215 12.4498 9.20352C12.493 9.47793 12.5371 9.75527 12.5422 10.032C12.5494 10.4365 12.5289 10.8418 12.5068 11.2461C12.4879 11.5899 12.4168 11.9288 12.2959 12.2512C12.0771 12.8357 11.8334 13.4107 11.6057 13.992C11.5305 14.184 11.4727 14.3828 11.4016 14.5939C11.5113 14.5939 11.6004 14.5932 11.6895 14.5943C11.7242 14.5949 11.7598 14.5959 11.7934 14.6039C12.0551 14.6656 12.282 14.7842 12.4682 14.9855C12.7164 15.2535 12.8467 15.5662 12.8533 15.9281C12.857 16.1287 12.8359 16.3299 12.8369 16.5305C12.841 17.4652 12.848 18.4 12.8559 19.3346C12.8572 19.4873 12.8648 19.6402 12.8758 19.7928C12.8986 20.1121 12.9217 20.4316 12.9529 20.7502C12.9748 20.9762 13.0053 21.2018 13.041 21.4262C13.0916 21.7441 13.2363 22.0271 13.4006 22.2977C13.542 22.5303 13.7258 22.7279 13.968 22.8643C14.3795 23.0959 14.8227 23.1152 15.2693 23.0299C15.5711 22.9723 15.8674 22.8797 16.1604 22.7842C16.4485 22.6917 16.7115 22.5345 16.9293 22.3244C17.1346 22.1254 17.2803 21.8828 17.3785 21.615C17.5691 21.0957 17.6285 20.5488 17.7074 20.0063C17.7369 19.8031 17.7625 19.5994 17.7895 19.3959C17.8201 19.1643 17.8512 18.9328 17.8809 18.7014C17.9027 18.5289 17.9227 18.3561 17.9438 18.1836C17.9738 17.9359 18.0057 17.6885 18.0344 17.4406C18.0564 17.249 18.0752 17.0566 18.0947 16.8646C18.1199 16.6193 18.1471 16.374 18.1688 16.1283C18.1855 15.9418 18.1787 15.752 18.2117 15.5689C18.2725 15.2334 18.4311 14.9479 18.7285 14.7633C18.8529 14.6861 18.9934 14.6354 19.1314 14.5701L19.108 14.5338ZM7.85859 13.1564C7.71025 12.8076 7.62088 12.4365 7.59414 12.0584C7.56914 11.702 7.61152 11.3469 7.64805 10.992C7.68359 10.6482 7.71309 10.3029 7.72344 9.95762C7.74062 9.39004 7.70234 8.82324 7.6752 8.25605C7.65879 7.91836 7.69805 7.57656 7.72813 7.23809C7.75527 6.9332 7.78906 6.62754 7.84668 6.32715C7.94336 5.82305 8.07168 5.32617 8.2541 4.84453C8.42734 4.38789 8.62637 3.94316 8.90742 3.54277C9.1 3.26816 9.31855 3.01152 9.52852 2.74316L9.46621 2.72109C8.78301 2.5041 8.08867 2.33457 7.37461 2.26055C7.03691 2.22559 6.69805 2.20508 6.35938 2.18496C6.25547 2.17871 6.15 2.19277 6.0457 2.20273C5.7875 2.22734 5.52617 2.23711 5.27207 2.28555C4.83965 2.36777 4.4248 2.50605 4.04062 2.73125C3.6957 2.9334 3.40605 3.19473 3.16348 3.5082C2.89551 3.8543 2.71523 4.2457 2.58574 4.66309C2.43281 5.15547 2.35996 5.66211 2.34023 6.17344C2.32305 6.62168 2.31445 7.07246 2.3918 7.51895C2.44941 7.85137 2.48789 8.1873 2.55137 8.51836C2.63789 8.96973 2.73066 9.42012 2.83789 9.8668C2.99121 10.5063 3.14434 11.1467 3.32598 11.7783C3.4998 12.3836 3.6959 12.9834 3.9084 13.576C4.08223 14.0596 4.2832 14.5342 4.49492 15.0025C4.63281 15.3076 4.7998 15.6012 4.9748 15.8869C5.16094 16.1902 5.37266 16.4781 5.65996 16.6982C6.02246 16.9762 6.30313 17.0193 6.67148 16.7145C6.8293 16.5838 6.9627 16.4225 7.1 16.2687C7.31816 16.0246 7.52871 15.7738 7.7459 15.5289C8.02246 15.2168 8.30254 14.908 8.58047 14.5975C8.63926 14.5318 8.6957 14.4643 8.75293 14.3979L8.6584 14.3148C8.31515 13.9877 8.0429 13.5934 7.85859 13.1564ZM18.3445 3.86562C18.5718 4.12982 18.7874 4.40377 18.9908 4.68672C19.3814 5.23535 19.6936 5.82773 19.9234 6.46152C20.0252 6.74082 20.1064 7.02285 20.0701 7.32852C20.0449 7.54258 20.0471 7.75977 20.0281 7.975C20.0123 8.1541 19.984 8.33223 19.9607 8.51074C19.926 8.77988 19.8756 9.04824 19.8605 9.31855C19.8463 9.57578 19.8611 9.83574 19.8773 10.0936C19.8938 10.3555 19.9291 10.6162 19.9531 10.8777C19.9803 11.1742 20.0168 11.4707 20.0252 11.7678C20.032 12.0117 20.0104 12.2572 19.9891 12.5008C19.9637 12.7941 19.8893 13.0781 19.7783 13.3506C19.7004 13.5424 19.6072 13.7283 19.5191 13.9203L19.5545 13.9578L19.6082 13.9994L19.6623 13.9025C20.1192 13.1835 20.5252 12.4334 20.8775 11.6578C21.103 11.1571 21.317 10.6514 21.5195 10.141C21.8367 9.34727 22.0877 8.53125 22.2818 7.69902C22.3689 7.32539 22.4355 6.94609 22.4947 6.5668C22.5408 6.27031 22.5793 5.97031 22.5879 5.67109C22.5971 5.35371 22.5795 5.03379 22.5502 4.71719C22.5283 4.47813 22.4693 4.2375 22.3195 4.04316C22.0787 3.73027 21.8187 3.43105 21.499 3.19434C21.2299 2.99492 20.9617 2.79043 20.6729 2.62266C20.2148 2.35703 19.7191 2.18008 19.2012 2.05957C18.6957 1.9418 18.1836 1.89102 17.6682 1.88027C17.3643 1.87383 17.059 1.90645 16.7557 1.93496C16.4809 1.96074 16.2078 2.00469 15.9311 2.04102C16.2279 2.20801 16.5207 2.35645 16.7969 2.53145C17.3775 2.89922 17.8979 3.3418 18.3445 3.86562ZM10.8006 14.1629C10.9883 13.5627 11.2439 12.9896 11.4916 12.4131C11.6924 11.9455 11.8021 11.4529 11.8387 10.9471C11.8568 10.6977 11.8518 10.4451 11.8395 10.1949C11.8272 9.91658 11.8017 9.63898 11.7629 9.36309C11.7109 9.01133 11.6518 8.65938 11.5686 8.31406C11.4783 7.94043 11.2508 7.68027 10.8609 7.58438C10.6234 7.52598 10.3875 7.52832 10.1475 7.56621C9.56113 7.65859 9.02441 7.87461 8.52441 8.19102C8.42383 8.25469 8.36856 8.30605 8.38594 8.45039C8.42266 8.75605 8.43066 9.0666 8.4293 9.3752C8.42734 9.81191 8.40879 10.2486 8.39219 10.6852C8.38672 10.8273 8.36621 10.9688 8.35098 11.1104C8.32754 11.3271 8.28242 11.5438 8.28379 11.7602C8.28516 11.9832 8.30801 12.2115 8.36211 12.4275C8.53398 13.1125 8.89805 13.673 9.49473 14.0686C9.86172 14.3117 10.2678 14.4344 10.7135 14.4576C10.7438 14.3553 10.7707 14.2586 10.8006 14.1629ZM10.1002 8.28652C10.0217 8.12168 10.0666 7.98516 10.2486 7.92188C10.293 7.90625 10.3387 7.88965 10.3848 7.88516C10.448 7.87891 10.5125 7.88359 10.5766 7.88359C10.8074 7.88477 11.0295 7.91699 11.2201 8.06387C11.3424 8.15801 11.3752 8.28301 11.2961 8.41133C11.1838 8.59336 11.0125 8.68477 10.8021 8.70234C10.4707 8.72988 10.2381 8.57539 10.1002 8.28652ZM19.2877 8.22637C19.3143 8.00684 19.3355 7.78672 19.3627 7.56719C19.3736 7.47891 19.3271 7.45508 19.2531 7.45293C19.0203 7.44648 18.7875 7.43828 18.5547 7.43398C18.2922 7.4293 18.0367 7.47148 17.7937 7.57129C17.5242 7.68223 17.3189 7.85996 17.2352 8.15332C17.1739 8.36966 17.1544 8.59571 17.1779 8.81934C17.2106 9.16514 17.2889 9.50508 17.4109 9.83027C17.5738 10.2641 17.7443 10.6977 17.948 11.1133C18.224 11.676 18.5363 12.2207 18.8295 12.7748C18.9078 12.9227 18.9736 13.077 19.0553 13.2496C19.2199 12.9064 19.3098 12.5321 19.3191 12.1516C19.3271 11.8371 19.302 11.5213 19.2836 11.2066C19.2721 11.0141 19.2449 10.8227 19.2262 10.6305C19.2 10.3627 19.1604 10.0951 19.1543 9.82676C19.1482 9.55391 19.1676 9.27949 19.191 9.00703C19.2131 8.7457 19.2563 8.48652 19.2877 8.22637ZM18.7625 8.01504C18.676 8.25391 18.491 8.38867 18.2512 8.42832C18.0275 8.46504 17.8316 8.38242 17.6859 8.2041C17.5822 8.07715 17.6219 7.92676 17.7773 7.84102C17.9559 7.74219 18.1521 7.71719 18.3836 7.70215C18.4465 7.71367 18.5412 7.72324 18.6313 7.74902C18.7619 7.78594 18.8102 7.88418 18.7625 8.01504ZM11.8441 15.3705C11.7162 15.266 11.5471 15.26 11.4254 15.3746C11.2744 15.5172 11.1416 15.6803 11.0088 15.841C10.8555 16.0268 10.7117 16.2199 10.5139 16.3639C10.226 16.573 9.89043 16.6598 9.55312 16.7418C9.28496 16.807 9.01562 16.8676 8.74668 16.9303L8.74336 16.965C8.82324 17.002 8.90059 17.048 8.98379 17.0744C9.39395 17.2043 9.81113 17.2689 10.2445 17.2322C10.5574 17.2057 10.8555 17.1375 11.1379 17.0035C11.5266 16.8193 11.8256 16.5275 12.0799 16.1881C12.1225 16.1314 12.1418 16.0477 12.1469 15.9746C12.1643 15.7166 12.0332 15.5248 11.8441 15.3705ZM21.9518 15.4732C21.6217 15.5086 21.2912 15.5461 20.9602 15.565C20.8004 15.5742 20.6383 15.5437 20.477 15.5307C20.2064 15.5088 19.9424 15.4486 19.7137 15.3041C19.5812 15.2207 19.4713 15.2113 19.3307 15.2586C19.1299 15.3262 18.966 15.4289 18.9176 15.6465C18.8846 15.7936 18.8727 15.9459 18.8594 16.0965C18.8568 16.123 18.89 16.1719 18.9154 16.1785C19.0703 16.2193 19.226 16.2676 19.3844 16.2818C19.5789 16.2994 19.777 16.2937 19.9729 16.284C20.1844 16.2734 20.3973 16.2598 20.6057 16.2246C21.0969 16.1422 21.5721 16.0078 21.9941 15.7293C22.1463 15.6287 22.2971 15.526 22.4482 15.4242L22.4357 15.4027C22.2744 15.4268 22.1139 15.4561 21.9518 15.4732Z" fill="#336791"/>
</svg>
