<svg width="25" height="25" viewBox="0 0 25 25" fill="none" xmlns="http://www.w3.org/2000/svg">
<path d="M12.5 14.7266C13.7297 14.7266 14.7266 13.7297 14.7266 12.5C14.7266 11.2703 13.7297 10.2734 12.5 10.2734C11.2703 10.2734 10.2734 11.2703 10.2734 12.5C10.2734 13.7297 11.2703 14.7266 12.5 14.7266Z" fill="#61DAFB"/>
<path d="M20.957 8.82812C20.5273 8.67187 20.0781 8.51563 19.6094 8.37891C19.7266 7.91016 19.8242 7.44141 19.9023 6.99219C20.3125 4.41406 19.8633 2.59766 18.6133 1.89453C18.2422 1.67969 17.832 1.58203 17.3633 1.58203C15.9961 1.58203 14.2578 2.59766 12.5 4.29688C10.7422 2.59766 9.00391 1.58203 7.63672 1.58203C7.16797 1.58203 6.75781 1.67969 6.38672 1.89453C5.13672 2.61719 4.6875 4.43359 5.09766 6.99219C5.17578 7.44141 5.27344 7.91016 5.39062 8.37891C4.92188 8.51563 4.47266 8.65234 4.04297 8.82812C1.60156 9.76562 0.273438 11.0547 0.273438 12.5C0.273438 13.9453 1.62109 15.2344 4.04297 16.1719C4.47266 16.3281 4.92188 16.4844 5.39062 16.6211C5.27344 17.0898 5.17578 17.5586 5.09766 18.0078C4.6875 20.5859 5.13672 22.4023 6.38672 23.1055C6.75781 23.3203 7.16797 23.418 7.63672 23.418C9.02344 23.418 10.7617 22.4023 12.5 20.7031C14.2578 22.4023 15.9961 23.418 17.3633 23.418C17.832 23.418 18.2422 23.3203 18.6133 23.1055C19.8633 22.3828 20.3125 20.5664 19.9023 18.0078C19.8242 17.5586 19.7266 17.0898 19.6094 16.6211C20.0781 16.4844 20.5273 16.3477 20.957 16.1719C23.3984 15.2344 24.7266 13.9453 24.7266 12.5C24.7266 11.0547 23.3984 9.76562 20.957 8.82812ZM18.0664 2.87109C18.8672 3.33984 19.1406 4.78516 18.8086 6.83594C18.75 7.24609 18.6523 7.67578 18.5352 8.125C17.5195 7.89062 16.4453 7.73437 15.3125 7.63672C14.6484 6.69922 13.9648 5.85938 13.2812 5.09766C14.7266 3.67188 16.1914 2.69531 17.3828 2.69531C17.6367 2.69531 17.8711 2.75391 18.0664 2.87109ZM15.8789 14.4531C15.5273 15.0781 15.1172 15.7031 14.6875 16.3281C13.9648 16.3867 13.2422 16.4062 12.5 16.4062C11.7383 16.4062 11.0156 16.3867 10.3125 16.3281C9.88281 15.7031 9.49219 15.0781 9.14062 14.4531C8.76953 13.8086 8.41797 13.1445 8.10547 12.5C8.41797 11.8555 8.76953 11.1914 9.14062 10.5469C9.49219 9.92188 9.90234 9.29688 10.332 8.67188C11.0547 8.61328 11.7773 8.59375 12.5195 8.59375C13.2812 8.59375 14.0039 8.61328 14.707 8.67188C15.1367 9.29688 15.5273 9.92188 15.8789 10.5469C16.25 11.1914 16.6016 11.8555 16.9141 12.5C16.582 13.1445 16.25 13.7891 15.8789 14.4531ZM17.5 13.8086C17.793 14.4922 18.0273 15.1562 18.2422 15.8203C17.5781 15.9766 16.875 16.0938 16.1328 16.1914C16.3672 15.8203 16.6211 15.4297 16.8359 15.0195C17.0703 14.6094 17.2852 14.1992 17.5 13.8086ZM12.5 19.1016C12.0312 18.5938 11.582 18.0469 11.1523 17.4805C11.6016 17.5 12.0508 17.5195 12.5 17.5195C12.9492 17.5195 13.3984 17.5 13.8477 17.4805C13.418 18.0469 12.9688 18.5938 12.5 19.1016ZM8.86719 16.1719C8.125 16.0742 7.42187 15.957 6.75781 15.8008C6.97266 15.1563 7.20703 14.4727 7.5 13.7891C7.71484 14.1797 7.92969 14.5898 8.16406 14.9805C8.39844 15.4102 8.63281 15.7813 8.86719 16.1719ZM7.5 11.1914C7.20703 10.5078 6.97266 9.84375 6.75781 9.17969C7.42187 9.02344 8.125 8.90625 8.86719 8.80859C8.63281 9.17969 8.37891 9.57031 8.16406 9.98047C7.92969 10.3906 7.71484 10.8008 7.5 11.1914ZM12.5 5.89844C12.9688 6.40625 13.418 6.95312 13.8477 7.51953C13.3984 7.5 12.9492 7.48047 12.5 7.48047C12.0508 7.48047 11.6016 7.5 11.1523 7.51953C11.582 6.95312 12.0312 6.40625 12.5 5.89844ZM16.8359 10L16.1328 8.82812C16.875 8.92578 17.5781 9.04297 18.2422 9.19922C18.0273 9.84375 17.793 10.5273 17.5 11.2109C17.2852 10.8008 17.0703 10.3906 16.8359 10ZM6.19141 6.83594C5.85938 4.78516 6.13281 3.33984 6.93359 2.87109C7.12891 2.75391 7.36328 2.69531 7.61719 2.69531C8.78906 2.69531 10.2539 3.65234 11.7188 5.09766C11.0352 5.83984 10.3516 6.69922 9.6875 7.63672C8.55469 7.73437 7.48047 7.91016 6.46484 8.125C6.34766 7.67578 6.26953 7.24609 6.19141 6.83594ZM1.36719 12.5C1.36719 11.582 2.48047 10.6055 4.43359 9.88281C4.82422 9.72656 5.25391 9.58984 5.68359 9.47266C5.99609 10.4492 6.38672 11.4844 6.85547 12.5195C6.38672 13.5547 5.97656 14.5703 5.68359 15.5469C2.98828 14.7656 1.36719 13.5938 1.36719 12.5ZM6.93359 22.1289C6.13281 21.6602 5.85938 20.2148 6.19141 18.1641C6.25 17.7539 6.34766 17.3242 6.46484 16.875C7.48047 17.1094 8.55469 17.2656 9.6875 17.3633C10.3516 18.3008 11.0352 19.1406 11.7188 19.9023C10.2734 21.3281 8.80859 22.3047 7.61719 22.3047C7.36328 22.3047 7.12891 22.2461 6.93359 22.1289ZM18.8086 18.1641C19.1406 20.2148 18.8672 21.6602 18.0664 22.1289C17.8711 22.2461 17.6367 22.3047 17.3828 22.3047C16.2109 22.3047 14.7461 21.3477 13.2812 19.9023C13.9648 19.1602 14.6484 18.3008 15.3125 17.3633C16.4453 17.2656 17.5195 17.0898 18.5352 16.875C18.6523 17.3242 18.7305 17.7539 18.8086 18.1641ZM20.5664 15.1172C20.1758 15.2734 19.7461 15.4102 19.3164 15.5273C19.0039 14.5508 18.6133 13.5156 18.1445 12.4805C18.6133 11.4453 19.0234 10.4297 19.3164 9.45313C22.0117 10.2344 23.6328 11.4062 23.6328 12.5C23.6328 13.418 22.5 14.3945 20.5664 15.1172Z" fill="#61DAFB"/>
</svg>
