<svg width="25" height="25" viewBox="0 0 25 25" fill="none" xmlns="http://www.w3.org/2000/svg">
<path d="M17.3223 17.209C15.5645 20.8027 12.4863 23.2207 8.41407 24.0156C7.78969 24.1686 7.14871 24.2434 6.50587 24.2383C4.16212 24.2383 2.01368 23.2617 0.970716 21.6621C-0.429675 19.5313 -0.906237 15.0137 3.71095 11.6719C3.8047 12.1816 3.99611 12.8809 4.12306 13.2949C3.21668 13.9683 2.47477 14.8384 1.95314 15.8398C1.09376 17.5273 1.18947 19.2129 2.20704 20.7715C2.91017 21.8223 4.02345 22.4609 5.45509 22.6562C7.24325 22.8826 9.0573 22.541 10.6406 21.6797C13.1231 20.375 14.7774 18.8164 15.8594 16.6855C15.5534 16.3694 15.3723 15.9531 15.3496 15.5137C15.3333 15.0422 15.5046 14.5834 15.8261 14.2381C16.1476 13.8928 16.593 13.6892 17.0645 13.6719H17.1309C17.5895 13.6696 18.0314 13.8437 18.3652 14.1581C18.699 14.4725 18.8992 14.9033 18.9243 15.3612C18.9494 15.8191 18.7975 16.2691 18.5 16.6181C18.2025 16.9672 17.7823 17.1885 17.3262 17.2363L17.3223 17.209ZM22.9219 13.2637C25.3067 15.9668 25.3711 19.1484 24.4492 20.9941C23.5899 22.6797 21.3242 24.3672 18.2774 24.3672C16.855 24.3382 15.4558 24.0017 14.1758 23.3809C14.6231 23.0625 15.2578 22.5527 15.6074 22.2344C16.5945 22.662 17.6568 22.8891 18.7324 22.9023C20.7051 22.9023 22.1992 21.9805 23.0899 20.2949C23.6621 19.1816 23.6953 17.877 23.1543 16.541C22.4905 14.8601 21.3092 13.434 19.7813 12.4688C17.7767 11.1175 15.4136 10.3971 12.9961 10.4004H12.4238C12.2904 10.7086 12.0733 10.9734 11.7972 11.1646C11.521 11.3558 11.1968 11.4659 10.8613 11.4824H10.8008C10.3368 11.4767 9.89324 11.2903 9.56441 10.9629C9.23559 10.6354 9.04738 10.1927 9.03975 9.72866C9.03212 9.26466 9.20568 8.81596 9.52356 8.47787C9.84144 8.13977 10.2786 7.93892 10.7422 7.91797H10.8067C11.1297 7.91821 11.4465 8.00748 11.7221 8.17596C11.9977 8.34445 12.2216 8.58564 12.3692 8.87305H12.8789C16.9414 8.87305 20.5078 10.4316 22.9219 13.2637ZM6.75978 17.7559C6.72633 17.4315 6.8049 17.1055 6.98243 16.832C5.20118 13.7461 4.24806 9.83398 5.71095 5.76172C6.75978 2.70117 9.4004 0.632812 12.2637 0.632812C15.3184 0.632812 18.5 3.30664 18.8809 8.45898C18.4043 8.30078 17.709 8.06836 17.291 7.98242C17.1875 6.29687 15.7637 2.09766 12.3906 2.16016C11.1817 2.19336 9.4004 2.76562 8.48439 3.94141C7.35131 5.34496 6.69215 7.07148 6.60157 8.87305C6.38687 11.3433 6.96644 13.8176 8.25587 15.9355C8.32705 15.9095 8.40294 15.8989 8.47853 15.9043H8.54103C9.01344 15.8958 9.46991 16.0752 9.81 16.4032C10.1501 16.7312 10.346 17.1809 10.3545 17.6533C10.3631 18.1257 10.1836 18.5822 9.85558 18.9223C9.52757 19.2624 9.0779 19.4583 8.60548 19.4668H8.54103C8.08015 19.4652 7.63768 19.2857 7.30584 18.9659C6.974 18.6461 6.77839 18.2105 6.75978 17.75V17.7559Z" fill="#764ABC"/>
</svg>
