<svg width="25" height="25" viewBox="0 0 25 25" fill="none" xmlns="http://www.w3.org/2000/svg">
<circle cx="12.5" cy="12.5" r="12.5" fill="#007ACC"/>
<rect x="3.33331" y="3.33325" width="17.5" height="18.3333" rx="6" fill="white"/>
<path d="M15.6663 3.33325C18.98 3.33325 21.6663 6.01954 21.6663 9.33325V15.6663C21.6663 18.98 18.98 21.6663 15.6663 21.6663H9.33331C6.0196 21.6663 3.33331 18.98 3.33331 15.6663V9.33325C3.33331 6.01954 6.01961 3.33325 9.33331 3.33325H15.6663ZM18.1068 11.7698C17.6474 11.6872 17.1783 11.6744 16.7151 11.7317C15.7151 11.9209 15.0305 12.5585 14.8353 13.4719C14.7829 13.8622 14.7938 14.2589 14.8675 14.6458C14.9663 14.9843 15.1379 15.2976 15.3704 15.5627C15.7429 15.9644 16.1512 16.2166 17.097 16.6243C17.9165 16.982 18.2101 17.1538 18.3568 17.3577C18.4611 17.5118 18.508 17.6978 18.4896 17.8831C18.4711 18.0685 18.3881 18.2417 18.2552 18.3723C17.8592 18.7287 17.0586 18.7711 16.472 18.4631C16.1987 18.2891 15.9623 18.0627 15.7767 17.7971L15.6663 17.635L15.14 17.9397L14.4612 18.3157C14.4025 18.3472 14.3458 18.3824 14.2923 18.4221C14.2718 18.4573 14.6002 18.9428 14.7689 19.1292C15.2711 19.6438 15.9246 19.9848 16.6341 20.1018C17.097 20.1647 17.5664 20.1696 18.0306 20.1165C19.0469 19.9449 19.7655 19.4269 20.0589 18.6643C20.3229 17.9633 20.2371 17.0156 19.847 16.429C19.4979 15.8995 18.9359 15.5268 17.6234 14.9622C16.9106 14.6542 16.6826 14.503 16.5609 14.2493C16.5046 14.1441 16.4772 14.0257 16.4818 13.9065C16.4788 13.4269 16.837 13.135 17.3929 13.1731C17.5684 13.1797 17.7394 13.231 17.89 13.3215C18.0403 13.412 18.1652 13.5389 18.2532 13.6907C18.3307 13.8062 18.4014 13.8824 18.4193 13.8713C18.9018 13.5721 19.6937 13.0364 19.6937 13.0129C19.5715 12.8005 19.4239 12.6038 19.2542 12.427C18.9455 12.0986 18.5459 11.8687 18.1068 11.7668V11.7698ZM10.5931 11.7795C8.83318 11.7795 7.37825 11.78 7.36652 11.7932C7.34738 12.0453 7.34152 12.2983 7.34894 12.551V13.2844H9.73566V20.0667H11.4232V13.2864H13.804V12.5354L13.7952 11.7795H10.5931Z" fill="#007ACC"/>
</svg>
